<svg xmlns="http://www.w3.org/2000/svg" version="1.1" xmlns:xlink="http://www.w3.org/1999/xlink" xmlns:svgjs="http://svgjs.dev/svgjs" width="2000" height="1247" viewBox="0 0 2000 1247"><g transform="matrix(1,0,0,1,-1.2121212121212466,0.504858299595071)"><svg viewBox="0 0 396 247" data-background-color="#dbefed" preserveAspectRatio="xMidYMid meet" height="1247" width="2000" xmlns="http://www.w3.org/2000/svg" xmlns:xlink="http://www.w3.org/1999/xlink"><g id="tight-bounds" transform="matrix(1,0,0,1,0.2400000000000091,-0.09999999999999432)"><svg viewBox="0 0 395.52 247.2" height="247.2" width="395.52"><g><svg></svg></g><g><svg viewBox="0 0 395.52 247.2" height="247.2" width="395.52"><g transform="matrix(1,0,0,1,113.52485915492957,37.08)"><svg viewBox="0 0 168.47028169014084 173.04" height="173.04" width="168.47028169014084"><g><svg viewBox="0 0 168.47028169014084 173.04" height="173.04" width="168.47028169014084"><g><svg viewBox="0 0 168.47028169014084 173.04" height="173.04" width="168.47028169014084"><g><svg viewBox="0 0 168.47028169014084 173.04" height="173.04" width="168.47028169014084"><g id="textblocktransform"><svg viewBox="0 0 168.47028169014084 173.04" height="173.04" width="168.47028169014084" id="textblock"><g><svg viewBox="0 0 168.47028169014084 173.04" height="173.04" width="168.47028169014084"><g transform="matrix(1,0,0,1,0,0)"><svg width="168.47028169014084" viewBox="2.88 -27.54 27 27.74" height="173.04" data-palette-color="#cb1106"><path d="M20.21 0.2L12.55 0.2 2.88-27.54 9.57-27.54 16.41-4.59 23.24-27.54 29.88-27.54 20.21 0.2Z" opacity="1" transform="matrix(1,0,0,1,0,0)" fill="#cb1106" class="wordmark-text-0" data-fill-palette-color="primary" id="text-0"></path></svg></g></svg></g></svg></g></svg></g></svg></g></svg></g></svg></g><g><path d="M0 247.2v-247.2h395.52v247.2zM379.915 231.595v-215.99h-364.31v215.99z" fill="#cb1106" fill-rule="nonzero" stroke="none" stroke-width="1" stroke-linecap="butt" stroke-linejoin="miter" stroke-miterlimit="10" stroke-dasharray="" stroke-dashoffset="0" font-family="none" font-weight="none" font-size="none" text-anchor="none" style="mix-blend-mode: normal" data-fill-palette-color="tertiary"></path></g></svg></g><defs></defs></svg><rect width="395.52" height="247.2" fill="none" stroke="none" visibility="hidden"></rect></g></svg></g></svg>