<svg xmlns="http://www.w3.org/2000/svg" version="1.1" xmlns:xlink="http://www.w3.org/1999/xlink" xmlns:svgjs="http://svgjs.dev/svgjs" width="2000" height="303" viewBox="0 0 2000 303"><g transform="matrix(1,0,0,1,-1.2121212121212466,1.0673074603055)"><svg viewBox="0 0 396 60" data-background-color="#162836" preserveAspectRatio="xMidYMid meet" height="303" width="2000" xmlns="http://www.w3.org/2000/svg" xmlns:xlink="http://www.w3.org/1999/xlink"><g id="tight-bounds" transform="matrix(1,0,0,1,0.2400000000000091,-0.21134801194168062)"><svg viewBox="0 0 395.52 60.42269602388338" height="60.42269602388338" width="395.52"><g><svg viewBox="0 0 488.40155316917173 74.61200087159533" height="60.42269602388338" width="395.52"><g><rect width="6.695111679786435" height="74.61200087159533" x="68.65997112345224" y="0" fill="#cf7650" opacity="1" stroke-width="0" stroke="transparent" fill-opacity="1" class="rect-yte-0" data-fill-palette-color="primary" rx="1%" id="yte-0" data-palette-color="#cf7650"></rect></g><g transform="matrix(1,0,0,1,92.88155316917175,0.1856019922178973)"><svg viewBox="0 0 395.52 74.24079688715953" height="74.24079688715953" width="395.52"><g id="textblocktransform"><svg viewBox="0 0 395.52 74.24079688715953" height="74.24079688715953" width="395.52" id="textblock"><g><svg viewBox="0 0 395.52 74.24079688715953" height="74.24079688715953" width="395.52"><g transform="matrix(1,0,0,1,0,0)"><svg width="395.52" viewBox="0.27 -28.88 156.85 29.439999999999998" height="74.24079688715953" data-palette-color="#cf7650"><path d="M29.05-28.2L17.94 0 10.52 0 0.27-28.2 8.52-28.2 16.04-5.74 23.34-28.2 29.05-28.2ZM61.77-14.16L61.77-14.16Q61.77-11.96 61.18-10.03 60.59-8.11 59.56-6.47 58.52-4.83 57.05-3.53 55.59-2.22 53.84-1.32 52.1-0.42 50.11 0.07 48.12 0.56 46.02 0.56L46.02 0.56Q43.92 0.56 41.94 0.07 39.96-0.42 38.22-1.32 36.47-2.22 35.01-3.53 33.54-4.83 32.5-6.47 31.47-8.11 30.88-10.05 30.3-11.99 30.3-14.16L30.3-14.16Q30.3-16.33 30.88-18.27 31.47-20.21 32.5-21.85 33.54-23.49 35.01-24.79 36.47-26.1 38.22-27 39.96-27.91 41.94-28.39 43.92-28.88 46.02-28.88L46.02-28.88Q48.12-28.88 50.11-28.39 52.1-27.91 53.84-27 55.59-26.1 57.05-24.79 58.52-23.49 59.56-21.85 60.59-20.21 61.18-18.27 61.77-16.33 61.77-14.16ZM53.37-14.16L53.37-14.16Q53.37-15.33 53.23-16.64 53.1-17.94 52.78-19.2 52.46-20.46 51.91-21.62 51.36-22.78 50.56-23.65 49.75-24.51 48.63-25.04 47.51-25.56 46.02-25.56L46.02-25.56Q44.6-25.56 43.5-25.02 42.4-24.49 41.59-23.6 40.77-22.71 40.22-21.53 39.67-20.36 39.33-19.1 38.99-17.85 38.84-16.56 38.69-15.28 38.69-14.16L38.69-14.16Q38.69-13.04 38.84-11.76 38.99-10.47 39.33-9.2 39.67-7.93 40.22-6.77 40.77-5.62 41.59-4.72 42.4-3.83 43.5-3.3 44.6-2.76 46.02-2.76L46.02-2.76Q47.48-2.76 48.61-3.28 49.73-3.81 50.55-4.69 51.36-5.57 51.9-6.71 52.44-7.86 52.77-9.13 53.1-10.4 53.23-11.69 53.37-12.99 53.37-14.16ZM91.23-9.01L91.23-9.01Q91.23-7.15 90.69-5.71 90.16-4.27 89.23-3.21 88.3-2.15 87.03-1.43 85.76-0.71 84.31-0.27 82.86 0.17 81.27 0.37 79.68 0.56 78.12 0.56L78.12 0.56Q76.02 0.56 74.41 0.29 72.8 0.02 71.33-0.57 69.87-1.17 68.42-2.12 66.96-3.08 65.18-4.44L65.18-4.44 69.99-8.37Q70.65-7.13 71.74-6.12 72.82-5.1 73.99-4.37 75.17-3.64 76.26-3.25 77.36-2.86 78.05-2.86L78.05-2.86Q78.61-2.86 79.32-2.89 80.02-2.93 80.76-3.04 81.49-3.15 82.2-3.37 82.91-3.59 83.45-3.97 84-4.35 84.33-4.92 84.66-5.49 84.66-6.3L84.66-6.3Q84.66-7.13 84.24-7.75 83.81-8.37 83.12-8.84 82.44-9.3 81.56-9.62 80.68-9.94 79.79-10.18 78.9-10.42 78.07-10.61 77.24-10.79 76.63-10.96L76.63-10.96Q75.51-11.28 74.26-11.61 73.02-11.94 71.8-12.37 70.58-12.79 69.47-13.38 68.35-13.96 67.51-14.78 66.67-15.6 66.17-16.71 65.67-17.82 65.67-19.31L65.67-19.31Q65.67-22.05 66.76-23.89 67.84-25.73 69.62-26.84 71.41-27.95 73.68-28.42 75.95-28.88 78.29-28.88L78.29-28.88Q79.9-28.88 81.68-28.55 83.47-28.22 85.15-27.58 86.84-26.93 88.3-26 89.77-25.07 90.74-23.88L90.74-23.88 85.93-19.92Q85.4-21.39 84.53-22.44 83.66-23.49 82.65-24.16 81.64-24.83 80.57-25.15 79.51-25.46 78.61-25.46L78.61-25.46Q77.73-25.46 76.63-25.39 75.53-25.32 74.57-24.98 73.6-24.63 72.93-23.94 72.26-23.24 72.26-22.02L72.26-22.02Q72.26-21.14 72.66-20.52 73.07-19.9 73.73-19.45 74.38-18.99 75.23-18.69 76.07-18.38 76.95-18.15 77.83-17.92 78.66-17.75 79.49-17.58 80.15-17.38L80.15-17.38Q81.27-17.07 82.53-16.74 83.78-16.41 85-15.98 86.23-15.55 87.36-14.98 88.5-14.4 89.35-13.57 90.2-12.74 90.72-11.63 91.23-10.52 91.23-9.01ZM122.45-21.22L122.45-21.22 118.89-19.8Q118.03-22.49 116.03-23.93 114.03-25.37 111.22-25.37L111.22-25.37Q109.71-25.37 108.53-24.89 107.34-24.41 106.45-23.58 105.56-22.75 104.94-21.66 104.31-20.56 103.92-19.31 103.53-18.07 103.36-16.74 103.19-15.41 103.19-14.16L103.19-14.16Q103.19-12.82 103.34-11.45 103.48-10.08 103.84-8.83 104.19-7.57 104.78-6.48 105.36-5.4 106.25-4.59 107.15-3.78 108.38-3.32 109.61-2.86 111.22-2.86L111.22-2.86Q112.52-2.86 113.69-3.25 114.86-3.64 115.84-4.35 116.81-5.05 117.57-6.03 118.33-7.01 118.77-8.2L118.77-8.2 122.36-6.88Q121.55-4.96 120.22-3.55 118.89-2.15 117.2-1.23 115.52-0.32 113.59 0.12 111.66 0.56 109.68 0.56L109.68 0.56Q106.49 0.56 103.75-0.52 101.02-1.61 99.03-3.58 97.04-5.54 95.92-8.24 94.79-10.94 94.79-14.16L94.79-14.16Q94.79-17.41 95.9-20.12 97.01-22.83 98.99-24.78 100.97-26.73 103.7-27.81 106.44-28.88 109.68-28.88L109.68-28.88Q111.74-28.88 113.69-28.43 115.64-27.98 117.31-27.04 118.99-26.1 120.32-24.66 121.65-23.22 122.45-21.22ZM157.12-14.16L157.12-14.16Q157.12-11.96 156.53-10.03 155.95-8.11 154.91-6.47 153.87-4.83 152.41-3.53 150.94-2.22 149.2-1.32 147.45-0.42 145.46 0.07 143.47 0.56 141.37 0.56L141.37 0.56Q139.27 0.56 137.29 0.07 135.32-0.42 133.57-1.32 131.83-2.22 130.36-3.53 128.9-4.83 127.86-6.47 126.82-8.11 126.24-10.05 125.65-11.99 125.65-14.16L125.65-14.16Q125.65-16.33 126.24-18.27 126.82-20.21 127.86-21.85 128.9-23.49 130.36-24.79 131.83-26.1 133.57-27 135.32-27.91 137.29-28.39 139.27-28.88 141.37-28.88L141.37-28.88Q143.47-28.88 145.46-28.39 147.45-27.91 149.2-27 150.94-26.1 152.41-24.79 153.87-23.49 154.91-21.85 155.95-20.21 156.53-18.27 157.12-16.33 157.12-14.16ZM148.72-14.16L148.72-14.16Q148.72-15.33 148.59-16.64 148.45-17.94 148.13-19.2 147.82-20.46 147.27-21.62 146.72-22.78 145.91-23.65 145.11-24.51 143.98-25.04 142.86-25.56 141.37-25.56L141.37-25.56Q139.96-25.56 138.86-25.02 137.76-24.49 136.94-23.6 136.12-22.71 135.57-21.53 135.02-20.36 134.68-19.1 134.34-17.85 134.19-16.56 134.05-15.28 134.05-14.16L134.05-14.16Q134.05-13.04 134.19-11.76 134.34-10.47 134.68-9.2 135.02-7.93 135.57-6.77 136.12-5.62 136.94-4.72 137.76-3.83 138.86-3.3 139.96-2.76 141.37-2.76L141.37-2.76Q142.84-2.76 143.96-3.28 145.08-3.81 145.9-4.69 146.72-5.57 147.26-6.71 147.79-7.86 148.12-9.13 148.45-10.4 148.59-11.69 148.72-12.99 148.72-14.16Z" opacity="1" transform="matrix(1,0,0,1,0,0)" fill="#cf7650" class="wordmark-text-0" data-fill-palette-color="primary" id="text-0"></path></svg></g></svg></g></svg></g></svg></g><g transform="matrix(1,0,0,1,0,0.1856019922178973)"><svg viewBox="0 0 51.13350075751916 74.24079688715953" height="74.24079688715953" width="51.13350075751916"><g><svg xmlns="http://www.w3.org/2000/svg" xmlns:xlink="http://www.w3.org/1999/xlink" version="1.0" x="0" y="0" viewBox="17.106 5.1766152 61.844 89.7913848" enable-background="new 0 0 100 100" xml:space="preserve" height="74.24079688715953" width="51.13350075751916" class="icon-icon-0" data-fill-palette-color="accent" id="icon-0"><circle cx="47.5848846" cy="58.8970032" r="3.5" fill="#d5a187" data-fill-palette-color="accent"></circle><circle cx="47.5848846" cy="80.8466187" r="3.5" fill="#d5a187" data-fill-palette-color="accent"></circle><path d="M65.696 33.726H58.05V45.39H17.106V94.968H78.95V45.39H65.696zM72.143 88.52H23.026V73.172H72.143zM72.143 51.223V66.572H23.026V51.222z" fill="#d5a187" data-fill-palette-color="accent"></path><polygon points="67.9260941,5.1766152 55.8206635,5.1766152 45.2937164,28.5065022 77.5431213,28.5065022 " fill="#d5a187" data-fill-palette-color="accent"></polygon></svg></g></svg></g></svg></g><defs></defs></svg><rect width="395.52" height="60.42269602388338" fill="none" stroke="none" visibility="hidden"></rect></g></svg></g></svg>